<?xml version="1.0" ?><svg data-name="Layer 2" id="acec39c8-3132-4698-b938-1cd12a5edf2b" viewBox="0 0 38 38" xmlns="http://www.w3.org/2000/svg"><path d="M29.429,36.744H8.571a5.259,5.259,0,0,1-5.252-5.252V6.509A5.259,5.259,0,0,1,8.571,1.256h13.32A5.239,5.239,0,0,1,25.615,2.8h0l7.521,7.515a5.3,5.3,0,0,1,1.545,3.727V31.492A5.259,5.259,0,0,1,29.429,36.744ZM8.571,3.756A2.757,2.757,0,0,0,5.819,6.509V31.492a2.756,2.756,0,0,0,2.752,2.752H29.429a2.756,2.756,0,0,0,2.752-2.752V14.04a2.786,2.786,0,0,0-.811-1.958L23.848,4.566h0a2.75,2.75,0,0,0-1.957-.811Z"/><path d="M32.32,13.72H27.665A5.24,5.24,0,0,1,22.43,8.485V2.51h2.5V8.485a2.738,2.738,0,0,0,2.735,2.735H32.32Z"/><path d="M15.163,26.978a.839.839,0,0,1-.281.643.933.933,0,0,1-.652.259.875.875,0,0,1-.918-.9V18.423a.859.859,0,0,1,.267-.643.935.935,0,0,1,.681-.259.888.888,0,0,1,.629.259.85.85,0,0,1,.274.643Z" stroke="#000" stroke-miterlimit="10" stroke-width="0.25"/><path d="M23.643,16.929a.865.865,0,0,1,.636.251.884.884,0,0,1,.251.651v9.147a.888.888,0,0,1-.251.643.91.91,0,0,1-1.272,0,.885.885,0,0,1-.252-.643v-.726l.325.133a.828.828,0,0,1-.207.467,2.834,2.834,0,0,1-.562.54,3.437,3.437,0,0,1-.836.451,2.892,2.892,0,0,1-1.043.186,3.39,3.39,0,0,1-1.851-.526,3.693,3.693,0,0,1-1.31-1.451,4.97,4.97,0,0,1,0-4.262,3.746,3.746,0,0,1,1.295-1.45,3.264,3.264,0,0,1,1.806-.525,3.425,3.425,0,0,1,1.169.192,3.491,3.491,0,0,1,.925.488,2.809,2.809,0,0,1,.607.6.95.95,0,0,1,.214.511l-.532.192V17.831a.888.888,0,0,1,.252-.643A.846.846,0,0,1,23.643,16.929ZM20.653,26.4a2.017,2.017,0,0,0,1.14-.326,2.205,2.205,0,0,0,.762-.888,2.843,2.843,0,0,0,.274-1.258,2.881,2.881,0,0,0-.274-1.273,2.219,2.219,0,0,0-.762-.888,2.009,2.009,0,0,0-1.14-.325,1.981,1.981,0,0,0-1.125.325,2.209,2.209,0,0,0-.761.888,2.867,2.867,0,0,0-.275,1.273,2.83,2.83,0,0,0,.275,1.258,2.2,2.2,0,0,0,.761.888A1.989,1.989,0,0,0,20.653,26.4Z" stroke="#000" stroke-miterlimit="10" stroke-width="0.25"/></svg>