<?xml version="1.0" encoding="UTF-8" standalone="no"?>
<svg
   data-name="Layer 2"
   id="acec39c8-3132-4698-b938-1cd12a5edf2b"
   viewBox="0 0 24 24"
   version="1.1"
   sodipodi:docname="ic_copy_id.svg"
   width="24"
   height="24"
   inkscape:version="1.4 (86a8ad7, 2024-10-11)"
   xmlns:inkscape="http://www.inkscape.org/namespaces/inkscape"
   xmlns:sodipodi="http://sodipodi.sourceforge.net/DTD/sodipodi-0.dtd"
   xmlns="http://www.w3.org/2000/svg"
   xmlns:svg="http://www.w3.org/2000/svg">
  <defs
     id="defs4" />
  <sodipodi:namedview
     id="namedview4"
     pagecolor="#ffffff"
     bordercolor="#000000"
     borderopacity="0.25"
     inkscape:showpageshadow="2"
     inkscape:pageopacity="0.0"
     inkscape:pagecheckerboard="0"
     inkscape:deskcolor="#d1d1d1"
     inkscape:zoom="30.921053"
     inkscape:cx="9.6051064"
     inkscape:cy="11.723404"
     inkscape:window-width="2560"
     inkscape:window-height="1377"
     inkscape:window-x="-8"
     inkscape:window-y="-8"
     inkscape:window-maximized="1"
     inkscape:current-layer="acec39c8-3132-4698-b938-1cd12a5edf2b" />
  <path
     d="M 18.811121,23.160846 H 5.6705811 a 3.31317,3.31317 0 0 1 -3.30876,-3.30876 V 4.1127957 a 3.31317,3.31317 0 0 1 3.30876,-3.30938974 h 8.3915999 a 3.30057,3.30057 0 0 1 2.34612,0.97272004 v 0 l 4.73823,4.7344497 a 3.339,3.339 0 0 1 0.97335,2.34801 V 19.852086 a 3.31317,3.31317 0 0 1 -3.30876,3.30876 z M 5.6705811,2.378406 a 1.73691,1.73691 0 0 0 -1.73376,1.7343897 V 19.852086 a 1.73628,1.73628 0 0 0 1.73376,1.73376 H 18.811121 a 1.73628,1.73628 0 0 0 1.73376,-1.73376 V 8.8573257 a 1.75518,1.75518 0 0 0 -0.51093,-1.23354 L 15.295091,2.888706 v 0 a 1.7325,1.7325 0 0 0 -1.23291,-0.51093 z"
     id="path1"
     style="stroke-width:0.63" />
  <path
     d="m 20.632451,8.6557257 h -2.93265 a 3.3012,3.3012 0 0 1 -3.29805,-3.29805 V 1.593426 h 1.575 v 3.7642497 a 1.72494,1.72494 0 0 0 1.72305,1.72305 h 2.93265 z"
     id="path2"
     style="stroke-width:0.63" />
  <path
     d="m 9.8235411,17.008266 a 0.52857,0.52857 0 0 1 -0.17703,0.40509 0.58779,0.58779 0 0 1 -0.41076,0.16317 0.55125,0.55125 0 0 1 -0.57834,-0.567 v -5.39091 a 0.54117,0.54117 0 0 1 0.16821,-0.40509 0.58905,0.58905 0 0 1 0.42903,-0.16317 0.55944,0.55944 0 0 1 0.39627,0.16317 0.5355,0.5355 0 0 1 0.17262,0.40509 z"
     stroke="#000000"
     stroke-miterlimit="10"
     stroke-width="0.1575"
     id="path3" />
  <path
     d="m 15.165941,10.677396 a 0.54495,0.54495 0 0 1 0.40068,0.15813 0.55692,0.55692 0 0 1 0.15813,0.41013 v 5.76261 a 0.55944,0.55944 0 0 1 -0.15813,0.40509 0.5733,0.5733 0 0 1 -0.80136,0 0.55755,0.55755 0 0 1 -0.15876,-0.40509 v -0.45738 l 0.20475,0.08379 a 0.52164,0.52164 0 0 1 -0.13041,0.29421 1.78542,1.78542 0 0 1 -0.35406,0.3402 2.16531,2.16531 0 0 1 -0.52668,0.28413 1.82196,1.82196 0 0 1 -0.65709,0.11718 2.1357,2.1357 0 0 1 -1.16613,-0.33138 2.32659,2.32659 0 0 1 -0.8253,-0.91413 3.1311,3.1311 0 0 1 0,-2.68506 2.35998,2.35998 0 0 1 0.81585,-0.9135 2.05632,2.05632 0 0 1 1.13778,-0.33075 2.15775,2.15775 0 0 1 0.73647,0.12096 2.19933,2.19933 0 0 1 0.58275,0.30744 1.76967,1.76967 0 0 1 0.38241,0.378 0.5985,0.5985 0 0 1 0.13482,0.32193 l -0.33516,0.12096 v -2.49921 a 0.55944,0.55944 0 0 1 0.15876,-0.40509 0.53298,0.53298 0 0 1 0.40068,-0.16317 z m -1.8837,5.96673 a 1.27071,1.27071 0 0 0 0.7182,-0.20538 1.38915,1.38915 0 0 0 0.48006,-0.55944 1.79109,1.79109 0 0 0 0.17262,-0.79254 1.81503,1.81503 0 0 0 -0.17262,-0.80199 1.39797,1.39797 0 0 0 -0.48006,-0.55944 1.26567,1.26567 0 0 0 -0.7182,-0.20475 1.24803,1.24803 0 0 0 -0.70875,0.20475 1.39167,1.39167 0 0 0 -0.47943,0.55944 1.80621,1.80621 0 0 0 -0.17325,0.80199 1.7829,1.7829 0 0 0 0.17325,0.79254 1.386,1.386 0 0 0 0.47943,0.55944 1.25307,1.25307 0 0 0 0.70875,0.20538 z"
     stroke="#000000"
     stroke-miterlimit="10"
     stroke-width="0.1575"
     id="path4" />
</svg>
