<svg height="48" viewBox="0 0 48 48" width="48" xmlns="http://www.w3.org/2000/svg"><path d="m0 0h48v48h-48z" fill="none"/><path d="m13.9 44a10 10 0 0 1 -7-2.9 9.8 9.8 0 0 1 0-14l7.2-7.2a9.8 9.8 0 0 1 14 0 2 2 0 0 1 -2.8 2.8 6 6 0 0 0 -8.4 0l-7.2 7.2a5.9 5.9 0 0 0 8.4 8.4l4.5-4.7a2 2 0 0 1 2.8 2.8l-4.5 4.7a10 10 0 0 1 -7 2.9z"/><path d="m26.9 31a10 10 0 0 1 -7-2.9 2 2 0 0 1 2.8-2.8 6 6 0 0 0 8.4 0l7.2-7.2a5.9 5.9 0 0 0 -8.4-8.4l-4.5 4.7a2 2 0 0 1 -2.8-2.8l4.5-4.7a9.9 9.9 0 0 1 14 14l-7.2 7.2a10 10 0 0 1 -7 2.9z"/></svg>