<svg xmlns="http://www.w3.org/2000/svg" width="24" height="24" viewBox="0 0 300 300"><path d="M125 25C131.9 25 137.5 30.6 137.5 37.5V87.5C137.5 94.4 131.9 100 125 100H100V125H162.5V112.5C162.5 105.6 168.1 100 175 100H250C256.9 100 262.5 105.6 262.5 112.5V162.5C262.5 169.4 256.9 175 250 175H175C168.1 175 162.5 169.4 162.5 162.5V150H100V225H162.5V212.5C162.5 205.6 168.1 200 175 200H250C256.9 200 262.5 205.6 262.5 212.5V262.5C262.5 269.4 256.9 275 250 275H175C168.1 275 162.5 269.4 162.5 262.5V250H87.5C80.6 250 75 244.4 75 237.5V100H50C43.1 100 37.5 94.4 37.5 87.5V37.5C37.5 30.6 43.1 25 50 25H125ZM237.5 225H187.5V250H237.5V225ZM237.5 125H187.5V150H237.5V125ZM112.5 50H62.5V75H112.5V50Z"/></svg>