<svg xmlns="http://www.w3.org/2000/svg" width="24" height="24" viewBox="30 40 300 300"><path d="M 98 125 H 162.5 V 112.5 C 162.5 105.6 168.1 100 175 100 H 250 C 256.9 100 262.5 105.6 262.5 112.5 V 162.5 C 262.5 169.4 256.9 175 250 175 H 175 C 168.1 175 162.5 169.4 162.5 162.5 V 150 H 100 V 225 H 162.5 V 212.5 C 162.5 205.6 168.1 200 175 200 H 250 C 256.9 200 262.5 205.6 262.5 212.5 V 262.5 C 262.5 269.4 256.9 275 250 275 H 175 C 168.1 275 162.5 269.4 162.5 262.5 V 250 H 87.5 C 80.6 250 75 244.4 75 237.5 V 137 C 75 131 81 125 87 125 Z M 237.5 225 H 187.5 V 250 H 237.5 V 225 Z M 237.5 125 H 187.5 V 150 H 237.5 V 125 Z Z"/></svg>