<svg xmlns="http://www.w3.org/2000/svg" width="24" height="24" viewBox="0 0 24 24"><path d="M 21 5 c -1.11 -0.35 -2.33 -0.5 -3.5 -0.5 c -1.95 0 -4.05 0.4 -5.5 1.5 c -1.45 -1.1 -3.55 -1.5 -5.5 -1.5 S 2.45 4.9 1 6 v 14.65 c 0 0.25 0.25 0.5 0.5 0.5 c 0.1 0 0.15 -0.05 0.25 -0.05 C 3.1 20.45 5.05 20 6.5 20 c 1.95 0 4.05 0.4 5.5 1.5 c 1.35 -0.85 3.8 -1.5 5.5 -1.5 c 1.65 0 3.35 0.3 4.75 1.05 c 0.1 0.05 0.15 0.05 0.25 0.05 c 0.25 0 0.5 -0.25 0.5 -0.5 V 6 c -0.6 -0.45 -1.25 -0.75 -2 -1 z m 0 13 l -18 0 L 3 8 l 18 0 z"/></svg>